# xmcd
#
# Track frame offsets:
#	150
#	13007
#	27737
#	42218
#	53118
#	67739
#	77050
#	88985
#	102536
#	113028
#	121401
#	132587
#
# Disc length: 1944 seconds
#
# Revision: 0
# Processed by: cddbd v1.5.1PL2 Copyright (c) Steve Scherf et al.
# Submitted via: dBpowerAMP V4.0
#
DISCID=a407960c
DTITLE=JJ Cale - Really
DYEAR=1972
DGENRE=Country
TTITLE0=Lies
TTITLE1=Everything Will Be Alright
TTITLE2=I'll Kiss The World Goodbye
TTITLE3=Changes
TTITLE4=Right Down Here
TTITLE5=If You're Ever In Oklahoma
TTITLE6=Ridin' Home
TTITLE7=Going Down
TTITLE8=Soulin'
TTITLE9=Playing In The Street
TTITLE10=Mo Jo
TTITLE11=Louisiana Women
EXTD=
EXTT0=
EXTT1=
EXTT2=
EXTT3=
EXTT4=
EXTT5=
EXTT6=
EXTT7=
EXTT8=
EXTT9=
EXTT10=
EXTT11=
PLAYORDER=
